<svg xmlns="http://www.w3.org/2000/svg" viewBox="0 0 256 256" role="img" aria-labelledby="title desc">
  <title>Embroidery Catalogue icon</title>
  <desc>A stylized embroidery machine logo inside a teal circle with the text Emb. Cat.</desc>
  <defs>
    <linearGradient id="bg" x1="0" y1="0" x2="1" y2="1">
      <stop offset="0%" stop-color="#4ec7a5"/>
      <stop offset="60%" stop-color="#187c84"/>
      <stop offset="100%" stop-color="#0c4768"/>
    </linearGradient>
    <linearGradient id="metal" x1="0" y1="0" x2="0" y2="1">
      <stop offset="0%" stop-color="#f4f7fb"/>
      <stop offset="100%" stop-color="#b8c5cf"/>
    </linearGradient>
    <filter id="shadow" x="-20%" y="-20%" width="140%" height="140%">
      <feDropShadow dx="0" dy="4" stdDeviation="4" flood-color="#0b2940" flood-opacity="0.28"/>
    </filter>
  </defs>

  <circle cx="128" cy="128" r="108" fill="url(#bg)"/>

  <g filter="url(#shadow)">
    <rect x="72" y="42" width="112" height="10" rx="5" fill="#243746"/>
    <rect x="78" y="45" width="100" height="4" rx="2" fill="#eef6fb" opacity="0.95"/>

    <rect x="82" y="86" width="92" height="10" rx="5" fill="url(#metal)" stroke="#253b4b" stroke-width="2"/>
    <rect x="96" y="52" width="6" height="34" rx="2" fill="#596d79"/>
    <rect x="154" y="52" width="6" height="34" rx="2" fill="#596d79"/>

    <g>
      <path d="M89 60c0-5 4-9 9-9s9 4 9 9v18H89z" fill="#ea5957" stroke="#243746" stroke-width="2"/>
      <rect x="91" y="64" width="14" height="14" rx="2" fill="#ff7d79" opacity="0.55"/>

      <path d="M113 58c0-5 4-9 9-9s9 4 9 9v20h-18z" fill="#5d95d5" stroke="#243746" stroke-width="2"/>
      <rect x="115" y="62" width="14" height="15" rx="2" fill="#8bc1ff" opacity="0.55"/>

      <path d="M144 58c0-5 4-9 9-9s9 4 9 9v20h-18z" fill="#8ab857" stroke="#243746" stroke-width="2"/>
      <rect x="146" y="62" width="14" height="15" rx="2" fill="#b8e17d" opacity="0.55"/>

      <path d="M168 60c0-5 4-9 9-9s9 4 9 9v18h-18z" fill="#f0b63d" stroke="#243746" stroke-width="2"/>
      <rect x="170" y="64" width="14" height="14" rx="2" fill="#ffd36d" opacity="0.55"/>
    </g>

    <path d="M98 78 L104 120" stroke="#d26f67" stroke-width="2" fill="none"/>
    <path d="M122 78 L126 120" stroke="#6d92c8" stroke-width="2" fill="none"/>
    <path d="M153 78 L144 120" stroke="#b9d96a" stroke-width="2" fill="none"/>
    <path d="M177 78 L158 120" stroke="#ffd45c" stroke-width="2" fill="none"/>

    <g>
      <rect x="107" y="76" width="42" height="56" rx="8" fill="url(#metal)" stroke="#243746" stroke-width="3"/>
      <rect x="112" y="83" width="32" height="12" rx="4" fill="#d5dde5"/>
      <circle cx="117" cy="89" r="2.8" fill="#243746"/>
      <circle cx="128" cy="89" r="2.8" fill="#243746"/>
      <circle cx="139" cy="89" r="2.8" fill="#243746"/>
      <circle cx="117" cy="99" r="2.8" fill="#243746"/>
      <circle cx="128" cy="99" r="2.8" fill="#243746"/>
      <circle cx="139" cy="99" r="2.8" fill="#243746"/>

      <rect x="104" y="111" width="48" height="8" rx="4" fill="#405564"/>
      <rect x="99" y="120" width="58" height="7" rx="3.5" fill="#d0d8df" stroke="#243746" stroke-width="2"/>

      <g stroke="#243746" stroke-width="2" stroke-linecap="round">
        <line x1="114" y1="102" x2="114" y2="117"/>
        <line x1="122" y1="102" x2="122" y2="117"/>
        <line x1="130" y1="102" x2="130" y2="117"/>
        <line x1="138" y1="102" x2="138" y2="117"/>
        <line x1="146" y1="102" x2="146" y2="117"/>
      </g>

      <rect x="121" y="127" width="14" height="18" rx="5" fill="#f4f7fb" stroke="#243746" stroke-width="2"/>
      <path d="M128 145v10" stroke="#243746" stroke-width="3" stroke-linecap="round"/>
      <path d="M128 155c-8 7-14 16-16 29" stroke="#8ce5d8" stroke-width="3" stroke-linecap="round" fill="none" stroke-dasharray="5 5"/>
      <path d="M128 155c5 4 11 5 20 4" stroke="#8ce5d8" stroke-width="3" stroke-linecap="round" fill="none" stroke-dasharray="5 5"/>
      <path d="M112 184h18v9H104l8-9zm22-5h18v9h-26l8-9z" fill="none" stroke="#8ce5d8" stroke-width="3" stroke-dasharray="6 4"/>
    </g>

    <text x="128" y="205" text-anchor="middle" font-size="24" font-weight="700" font-family="Segoe UI, Arial, sans-serif" fill="#f8fcff">Emb. Cat.</text>
  </g>
</svg>
